<svg width="22" height="22" viewBox="0 0 22 22" xmlns="http://www.w3.org/2000/svg">
    <path d="M7.122 7.172c0-2.442 1.941-4.422 4.336-4.422 2.395 0 4.337 1.98 4.337 4.422a4.44 4.44 0 0 1-1.928 3.677c2.609.995 4.466 3.56 4.466 6.568v1.833H4.583v-1.833c0-3.008 1.858-5.573 4.467-6.568a4.44 4.44 0 0 1-1.928-3.677zm4.336 2.48c1.344 0 2.433-1.11 2.433-2.48 0-1.37-1.09-2.48-2.433-2.48-1.343 0-2.432 1.11-2.432 2.48 0 1.37 1.089 2.48 2.432 2.48zm0 2.696c-2.71 0-4.913 2.211-4.97 4.96h9.94c-.056-2.749-2.26-4.96-4.97-4.96z" fill-rule="evenodd"/>
</svg>
