<svg width="16" height="16" viewBox="0 0 16 16" xmlns="http://www.w3.org/2000/svg">
    <g fill-rule="nonzero" fill="none">
        <path d="M3.063 8.064s.506.748 1.566 1.38c0 0-.768-6.532 4.237-7.666-1.282 4.735 1.632 6.071 2.694 3.569 1.773 2.383.427 4.462.427 4.462.727.105 1.338-.694 1.338-.694.005.098.008.197.008.297 0 2.902-2.338 5.255-5.222 5.255-2.884 0-5.222-2.353-5.222-5.255 0-.466.06-.918.174-1.348z" fill="#FF7058"/>
        <path d="M5.82 12.362a2.297 2.297 0 0 0 2.291 2.305 2.297 2.297 0 0 0 2.29-2.305c0-.681-.293-1.293-.76-1.715-.886 1.21-2.148-.626-1.164-1.967 0 0-2.656.335-2.656 3.682z" fill="#FFC065"/>
        <path d="M10.401 12.362c0-.681-.293-1.293-.76-1.715-.886 1.21-2.148-.626-1.164-1.967 0 0-.527.272-.775.683-.84 1.64-.704 3.408.41 5.304a2.297 2.297 0 0 0 2.29-2.305z" fill="#FFA624"/>
    </g>
</svg>
