<svg width="22" height="22" viewBox="0 0 22 22" xmlns="http://www.w3.org/2000/svg">
    <path d="M13.135 6.322c.07.132.131.265.185.398.282.694.351 1.385.206 2.053-.295 1.359-1.464 2.58-3.477 3.635l-.153.078c-1.886.96-2.64 2.263-2.18 3.771.104.345.275.697.507 1.049.914-.484 1.462-1.323 1.925-2.218l.12-.235.427-.874.132-.262c.4-.78.838-1.481 1.518-1.957.48-.336 1.025-.518 1.666-.557.085-.005.172-.007.26-.007.62 0 1.312.125 2.114.384 1.028.333 1.799.9 2.29 1.687.443.705.635 1.566.559 2.489a5.52 5.52 0 0 1-.466 1.78 6.294 6.294 0 0 1-1.026 1.607 5.928 5.928 0 0 1-1.496 1.237 5.204 5.204 0 0 1-1.88.657 4.75 4.75 0 0 1-.51.043l-.18.003c-1.212 0-2.55-.417-3.767-1.175a7.983 7.983 0 0 1-1.934-1.676c-.12.04-.243.078-.369.109-.423.107-.824.16-1.192.16-.835 0-1.528-.274-2.057-.815-.534-.547-.895-1.364-1.074-2.43-.138-.82-.17-1.793-.095-2.894.025-.361.058-.71.097-1.038.242.062.486.11.731.145a19.49 19.49 0 0 0-.089.952c-.154 2.298.176 3.934.956 4.731.385.393.903.592 1.54.592a4.17 4.17 0 0 0 1.006-.137l.084-.022a4.746 4.746 0 0 1-.506-1.103 3.585 3.585 0 0 1-.158-1.258c.026-.437.14-.86.34-1.258.405-.808 1.156-1.509 2.233-2.083l.142-.074c1.897-.964 2.986-2.04 3.237-3.199.128-.588.036-1.202-.273-1.835.21-.14.413-.292.607-.453zm1.136 5.627c-.596 0-1.088.142-1.506.434-.575.403-.968 1.063-1.339 1.8l-.13.263-.312.64c-.306.62-.636 1.238-1.08 1.78a4.366 4.366 0 0 1-1.217 1.045c.441.505.995.97 1.61 1.352 1.102.687 2.301 1.066 3.377 1.066.203 0 .401-.014.59-.04 2.406-.342 4.069-2.652 4.23-4.597.136-1.632-.715-2.868-2.334-3.39-.732-.238-1.35-.353-1.89-.353zM3.026 10.235c.58.037 1.144.145 1.688.322.123.043.196.185.171.322l-.009.048c-.025.134-.137.236-.262.236h-.01a6.875 6.875 0 0 1-1.679-.323c-.122-.042-.196-.184-.17-.322l.009-.047c.025-.135.137-.236.262-.236zm1.223-5.319c.428.048.83.125 1.217.23.122.033.21.169.2.31a23.125 23.125 0 0 1-.825 4.759l-.01-.004a7.224 7.224 0 0 0-.969-.244L3.76 9.95l-.18-.027.09.013a7.256 7.256 0 0 0-.413-.05l-.214-.016c.148-1.62.456-3.175.936-4.738.04-.125.153-.215.27-.215zm8.798.255c.089 0 .178.046.232.12l.028.04c.082.112.075.272-.015.363-.415.4-.877.748-1.375 1.033a.235.235 0 0 1-.116.03.294.294 0 0 1-.232-.122l-.028-.038c-.082-.114-.075-.274.016-.365.415-.4.877-.747 1.375-1.032a.244.244 0 0 1 .115-.029zM9.687.917a.31.31 0 0 1 .224.1 22.733 22.733 0 0 1 2.86 3.855 7.374 7.374 0 0 0-1.313.955l-.147.139a.633.633 0 0 0-.013.012 22.756 22.756 0 0 1-2.77-3.924c-.067-.123-.047-.284.049-.367.306-.268.635-.515.975-.733a.25.25 0 0 1 .135-.037z" fill-rule="evenodd"/>
</svg>
