<svg width="12" height="12" viewBox="0 0 12 12" xmlns="http://www.w3.org/2000/svg">
    <g fill="#44444F" fill-rule="nonzero">
        <path d="M8.77 4.55H12v-1.5c0-.954-.776-1.73-1.73-1.73H1.73C.777 1.32 0 2.096 0 3.05v6.462c0 .954.776 1.73 1.73 1.73h8.54c.954 0 1.73-.776 1.73-1.73v-1.5H8.77c-.955 0-1.732-.776-1.732-1.73 0-.955.777-1.732 1.731-1.732z"/>
        <path d="M8.77 5.243a1.04 1.04 0 0 0 0 2.077H12V5.243H8.77zm.46 1.384h-.46a.346.346 0 0 1 0-.692h.46a.346.346 0 0 1 0 .692z"/>
    </g>
</svg>
