<svg width="56" height="56" viewBox="0 0 56 56" xmlns="http://www.w3.org/2000/svg" xmlns:xlink="http://www.w3.org/1999/xlink">
    <defs>
        <linearGradient x1="50%" y1="0%" x2="50%" y2="69.182%" id="0ee2acg21a">
            <stop stop-color="#FBE678" offset="0%"/>
            <stop stop-color="#CAA215" offset="32.903%"/>
            <stop stop-color="#FFF5B0" offset="65.575%"/>
            <stop stop-color="#D0B315" offset="100%"/>
        </linearGradient>
        <filter x="-2.7%" y="-2.7%" width="105.4%" height="105.4%" filterUnits="objectBoundingBox" id="i728gmaxec">
            <feGaussianBlur stdDeviation="1" in="SourceAlpha" result="shadowBlurInner1"/>
            <feOffset dy="1" in="shadowBlurInner1" result="shadowOffsetInner1"/>
            <feComposite in="shadowOffsetInner1" in2="SourceAlpha" operator="arithmetic" k2="-1" k3="1" result="shadowInnerInner1"/>
            <feColorMatrix values="0 0 0 0 0 0 0 0 0 0 0 0 0 0 0 0 0 0 0.6 0" in="shadowInnerInner1" result="shadowMatrixInner1"/>
            <feGaussianBlur stdDeviation=".5" in="SourceAlpha" result="shadowBlurInner2"/>
            <feOffset in="shadowBlurInner2" result="shadowOffsetInner2"/>
            <feComposite in="shadowOffsetInner2" in2="SourceAlpha" operator="arithmetic" k2="-1" k3="1" result="shadowInnerInner2"/>
            <feColorMatrix values="0 0 0 0 1 0 0 0 0 1 0 0 0 0 1 0 0 0 1 0" in="shadowInnerInner2" result="shadowMatrixInner2"/>
            <feMerge>
                <feMergeNode in="shadowMatrixInner1"/>
                <feMergeNode in="shadowMatrixInner2"/>
            </feMerge>
        </filter>
        <circle id="71mwq6urzb" cx="28" cy="28" r="28"/>
    </defs>
    <g fill="none" fill-rule="evenodd">
        <g>
            <use fill="url(#0ee2acg21a)" xlink:href="#71mwq6urzb"/>
            <use fill="#000" filter="url(#i728gmaxec)" xlink:href="#71mwq6urzb"/>
            <circle fill="#FFF" cx="28" cy="28" r="22"/>
        </g>
        <path d="M26.517 34.116c.41.459.925.883 1.496 1.23 1.024.624 2.14.968 3.139.968.188 0 .372-.012.548-.037 2.236-.31 3.781-2.41 3.931-4.178.126-1.484-.664-2.607-2.17-3.083-.68-.215-1.254-.32-1.755-.32-.553 0-1.01.13-1.399.395-.66.452-1.062 1.261-1.486 2.119-.335.673-.678 1.365-1.173 1.955a4.035 4.035 0 0 1-1.13.951zM31.153 37c-1.126 0-2.369-.379-3.5-1.068a7.38 7.38 0 0 1-1.797-1.524 4.093 4.093 0 0 1-.343.099 4.653 4.653 0 0 1-1.108.145c-.776 0-1.42-.249-1.912-.74-.496-.498-.832-1.24-.998-2.21-.128-.744-.157-1.63-.088-2.63a19.84 19.84 0 0 1 .486-3.171.344.344 0 0 1 .67.167 20.016 20.016 0 0 0-.469 3.057c-.143 2.09.163 3.576.888 4.301.358.357.839.538 1.432.538.284 0 .598-.041.934-.124l.079-.02a4.271 4.271 0 0 1-.471-1.003c-.12-.386-.17-.77-.147-1.143a2.88 2.88 0 0 1 .316-1.144c.393-.767 1.136-1.427 2.208-1.961 1.762-.876 2.774-1.855 3.008-2.908.173-.78-.088-1.61-.774-2.468a.343.343 0 1 1 .54-.428c.319.4.554.785.716 1.178.262.63.326 1.259.191 1.866-.28 1.266-1.416 2.401-3.373 3.375-1.753.872-2.453 2.058-2.027 3.429.098.313.257.634.472.953 1.071-.554 1.601-1.623 2.115-2.659.468-.942.908-1.83 1.716-2.382.446-.306.953-.472 1.548-.507.079-.005.16-.007.242-.007.576 0 1.218.114 1.964.35.955.302 1.672.818 2.129 1.533.41.641.59 1.424.518 2.263a4.932 4.932 0 0 1-.432 1.619 5.708 5.708 0 0 1-2.345 2.585 4.908 4.908 0 0 1-1.746.597 4.663 4.663 0 0 1-.64.042h-.002z" fill="#282D33"/>
        <path d="M22.524 27.79a7.767 7.767 0 0 1-1.107-.209c-.112-.03-.194-.152-.186-.28.116-1.652.415-3.223.91-4.803a.276.276 0 0 1 .252-.196c.398.044.77.114 1.131.21.113.03.194.153.186.281a20.64 20.64 0 0 1-.91 4.802.275.275 0 0 1-.252.196l-.024-.001z" fill="#FF3348"/>
        <path d="M22.723 27.981a6.515 6.515 0 0 1-1.56-.293c-.113-.039-.182-.167-.158-.292l.008-.044a.258.258 0 0 1 .243-.214 6.493 6.493 0 0 1 1.57.293c.113.04.181.167.158.292l-.008.044c-.023.122-.128.214-.244.214h-.009z" fill="#FFF"/>
        <path d="M29.489 23.725a.294.294 0 0 1-.209-.09 20.746 20.746 0 0 1-2.91-3.934c-.063-.112-.044-.259.045-.334.285-.243.59-.468.906-.666a.237.237 0 0 1 .125-.034c.077 0 .156.033.209.09a20.738 20.738 0 0 1 2.91 3.934c.063.112.043.258-.045.334a7.87 7.87 0 0 1-.907.666.236.236 0 0 1-.124.034" fill="#FF3348"/>
        <path d="M29.411 23.975a.275.275 0 0 1-.215-.11l-.026-.035c-.076-.103-.07-.248.014-.33.386-.365.815-.68 1.278-.94a.231.231 0 0 1 .107-.026c.083 0 .165.042.215.11l.027.036c.076.102.07.247-.014.33-.386.364-.816.68-1.279.939a.222.222 0 0 1-.107.026" fill="#FFF"/>
    </g>
</svg>
