<svg width="56" height="56" viewBox="0 0 56 56" xmlns="http://www.w3.org/2000/svg">
    <g fill="none" fill-rule="evenodd">
        <circle fill-opacity=".75" fill="#000" cx="28" cy="28" r="28"/>
        <path d="M16 15h24v24H16z"/>
        <path d="M28 17c2.825 0 4.846 2.377 4.846 5.309v2.514h1.616c.297 0 .538.25.538.56V35.44a.549.549 0 0 1-.538.559H21.538a.549.549 0 0 1-.538-.559V25.382c0-.308.241-.558.538-.558l1.615-.001v-2.514C23.154 19.377 25.176 17 28 17zm0 1.676c-1.933 0-3.23 1.627-3.23 3.633l-.001 2.514h6.461v-2.514c0-2.006-1.297-3.633-3.23-3.633z" fill="#FFF"/>
    </g>
</svg>
