<svg width="22" height="22" viewBox="0 0 22 22" xmlns="http://www.w3.org/2000/svg">
    <path d="M20.167 17.915v1.37c0 .99-.795 1.798-1.77 1.798H8.107a2.27 2.27 0 0 0 .638-1.585v-1.583h11.422zM14.753 1.833c1.165 0 2.11.967 2.11 2.145v12.928a.334.334 0 0 1-.333.338H8.05v1.583c0 1.223-.979 2.234-2.177 2.256H5.83a2.155 2.155 0 0 1-1.53-.644 2.37 2.37 0 0 1-.69-1.661v-14.8c0-.811-.65-1.467-1.45-1.467a.333.333 0 0 1-.327-.339c0-.183.147-.339.328-.339h12.592zm-6.503 8.25H6.417a.917.917 0 0 0-.107 1.827l.107.007H8.25a.917.917 0 1 0 0-1.834zm1.833-2.75H6.417A.917.917 0 0 0 6.31 9.16l.107.007h3.666a.917.917 0 0 0 0-1.834zm3.667-2.75H6.417A.917.917 0 0 0 6.31 6.41l.107.007h7.333a.917.917 0 0 0 0-1.834z" fill-rule="evenodd"/>
</svg>
