<svg width="22" height="22" viewBox="0 0 22 22" xmlns="http://www.w3.org/2000/svg">
    <path d="M13.63 7.883c.242 0 .439.194.439.434v8.666c0 .24-.197.434-.439.434H8.37a.436.436 0 0 1-.439-.434V8.317c0-.24.197-.434.439-.434zm6.577 2.6c.242 0 .438.195.438.434v6.066c0 .24-.196.434-.438.434h-5.042a.218.218 0 0 1-.22-.217v-6.5c0-.12.099-.217.22-.217zm-13.372 0c.121 0 .22.097.22.217v6.5c0 .12-.099.217-.22.217H1.793a.436.436 0 0 1-.438-.434v-6.066c0-.24.196-.434.438-.434zm11.891 1.29h-1.723a.545.545 0 0 0-.548.543c0 .299.246.541.548.541h.627l-.282.372a.536.536 0 0 0-.03.606c.116.19.34.288.557.254.226-.037.348.071.409.17a.498.498 0 0 1-.04.562c-.12.163-.422.256-.689.21-.128-.022-.291-.081-.341-.242a.55.55 0 0 0-.685-.36.541.541 0 0 0-.363.678c.161.52.612.891 1.204.992.11.019.219.027.328.027.57 0 1.118-.246 1.428-.661a1.567 1.567 0 0 0 .092-1.772 1.458 1.458 0 0 0-.485-.484l.432-.568a.535.535 0 0 0 .051-.567.55.55 0 0 0-.49-.3zm-14.46 0-.148.002c-.8.042-1.376.582-1.4 1.315-.01.3.226.55.528.56a.552.552 0 0 0 .566-.524c.009-.232.28-.264.363-.269.016-.002.39-.017.426.248.059.416-.971 1.3-1.41 1.678-.19.163-.355.305-.47.42a.537.537 0 0 0-.12.59.548.548 0 0 0 .507.333h2.193a.545.545 0 0 0 .548-.541.545.545 0 0 0-.548-.542H4.54c.65-.61 1.254-1.336 1.148-2.087-.102-.726-.77-1.23-1.57-1.18zm7.137-1.368a.554.554 0 0 0-.609.169c-.184.223-.374.376-.58.465a.54.54 0 0 0-.28.715.55.55 0 0 0 .724.276l.013-.005v2.142c0 .299.246.542.548.542a.545.545 0 0 0 .548-.542v-3.251a.544.544 0 0 0-.364-.511zM20.645 8.1c.242 0 .438.194.438.433v.434c0 .24-.196.433-.438.433h-5.48a.218.218 0 0 1-.22-.217v-.866c0-.12.099-.217.22-.217zm-13.81 0c.121 0 .22.097.22.217v.866c0 .12-.099.217-.22.217h-5.48a.436.436 0 0 1-.438-.433v-.434c0-.239.196-.433.438-.433zm7.234-2.6c.242 0 .438.194.438.433v.434c0 .24-.196.433-.438.433H7.93a.436.436 0 0 1-.438-.433v-.434c0-.239.196-.433.438-.433z" fill-rule="evenodd"/>
</svg>
