<svg width="16" height="16" viewBox="0 0 16 16" xmlns="http://www.w3.org/2000/svg">
    <g fill="none" fill-rule="evenodd">
        <path d="M7.011 12.078c.274.305.617.588.997.819.683.416 1.427.646 2.093.646.126 0 .248-.008.366-.025 1.49-.207 2.52-1.607 2.62-2.785.084-.99-.443-1.739-1.446-2.055-.454-.144-.836-.214-1.17-.214-.369 0-.674.086-.933.263-.44.302-.708.841-.99 1.413-.224.449-.452.91-.783 1.304a2.69 2.69 0 0 1-.754.634zM10.102 14c-.75 0-1.58-.253-2.333-.712a4.92 4.92 0 0 1-1.198-1.016 3.102 3.102 0 0 1-.967.163c-.518 0-.947-.166-1.275-.494-.33-.332-.555-.827-.666-1.473-.085-.496-.104-1.086-.058-1.754.076-1.098.298-2.013.324-2.114a.23.23 0 0 1 .446.112c-.003.01-.237.957-.312 2.038-.096 1.393.109 2.384.592 2.867.238.238.559.36.954.36.19 0 .4-.029.623-.084l.052-.013a2.847 2.847 0 0 1-.314-.669 2.128 2.128 0 0 1-.097-.762 1.92 1.92 0 0 1 .21-.762c.262-.512.758-.952 1.472-1.308 1.175-.584 1.85-1.236 2.005-1.938.116-.52-.058-1.073-.516-1.646a.229.229 0 1 1 .36-.285c.213.267.37.524.478.785.174.42.217.84.127 1.244-.187.844-.943 1.601-2.248 2.25-1.169.582-1.636 1.372-1.351 2.286.065.21.17.423.314.635.714-.369 1.068-1.081 1.41-1.772.312-.628.605-1.22 1.144-1.588a1.985 1.985 0 0 1 1.032-.338c.053-.003.107-.005.161-.005.384 0 .812.077 1.31.234.636.201 1.114.545 1.419 1.022.274.427.393.949.345 1.508-.03.36-.127.724-.288 1.08a3.805 3.805 0 0 1-1.563 1.723 3.272 3.272 0 0 1-1.164.398 3.109 3.109 0 0 1-.426.028h-.002z" fill="#282D33"/>
        <path d="M4.35 7.86a5.178 5.178 0 0 1-.739-.14c-.075-.019-.129-.1-.123-.186.077-1.101.276-2.149.606-3.202a.184.184 0 0 1 .168-.13c.265.029.514.075.754.14.075.019.13.101.124.187a13.76 13.76 0 0 1-.607 3.2.184.184 0 0 1-.168.132L4.35 7.86z" fill="#FF3348"/>
        <path d="M4.482 7.988a4.343 4.343 0 0 1-1.04-.196c-.076-.026-.121-.111-.106-.195l.006-.029a.172.172 0 0 1 .162-.143c.36.023.71.088 1.046.196.076.026.122.111.106.195l-.005.028c-.016.082-.086.144-.163.144h-.006z" fill="#FFF"/>
        <path d="M8.993 5.15a.196.196 0 0 1-.14-.06 13.83 13.83 0 0 1-1.94-2.623c-.042-.074-.029-.172.03-.222.19-.163.394-.312.605-.444a.158.158 0 0 1 .083-.023c.051 0 .104.022.139.06.756.806 1.39 1.664 1.94 2.623.042.074.029.172-.03.222-.19.162-.393.31-.605.444a.157.157 0 0 1-.082.023" fill="#FF3348"/>
        <path d="M8.94 5.317a.183.183 0 0 1-.143-.074L8.78 5.22c-.051-.069-.047-.166.01-.22.257-.243.543-.454.851-.626a.154.154 0 0 1 .072-.018c.055 0 .11.028.143.073l.018.024c.05.068.046.165-.01.22a4.309 4.309 0 0 1-.852.626.148.148 0 0 1-.071.018" fill="#FFF"/>
    </g>
</svg>
